<svg xmlns="http://www.w3.org/2000/svg" width="655.359" height="655.359" fill-rule="evenodd" clip-rule="evenodd" image-rendering="optimizeQuality" shape-rendering="geometricPrecision" text-rendering="geometricPrecision" viewBox="0 0 6.827 6.827" id="kaaba">
  <path fill-rule="nonzero" d="M1.039 1.48a.08.08 0 0 0 .04.155l2.334-.617 2.334.617a.08.08 0 0 0 .04-.155L3.44.86a.08.08 0 0 0-.046-.002l-2.354.622z"></path>
  <path fill-rule="nonzero" d="M3.393 2.868a.08.08 0 0 0 .041-.155L1.139 2.1v-.437l2.254.604a.08.08 0 0 0 .041-.155l-2.35-.63a.08.08 0 0 0-.105.077v.6a.08.08 0 0 0 .06.08v-.001l2.354.63zm0 2.645a.08.08 0 0 0 .041-.154l-2.295-.615V2.736l2.254.604a.08.08 0 0 0 .041-.154l-2.35-.63a.08.08 0 0 0-.105.076v2.171a.08.08 0 0 0 .06.08l2.354.63z"></path>
  <path fill-rule="nonzero" d="M5.848 2.16a.08.08 0 0 0-.16 0v.472a.08.08 0 0 0 .16 0V2.16zm-4.869.472a.08.08 0 0 0 .16 0V2.16a.08.08 0 0 0-.16 0v.472zm.1.544a.08.08 0 0 0-.04.155l.393.105a.08.08 0 0 0 .041-.154l-.393-.106zm1.02.273a.08.08 0 0 0-.042.155l1.336.358a.08.08 0 0 0 .041-.155L2.099 3.45z"></path>
  <path fill-rule="nonzero" d="m5.688 1.662-2.195.588v.437l2.195-.588v-.437zm-2.295.45 2.35-.63a.08.08 0 0 1 .105.076v.6a.08.08 0 0 1-.06.08v-.001l-2.35.63a.08.08 0 0 1-.105-.076V2.19a.08.08 0 0 1 .06-.079zm.1 1.212v2.008l2.195-.588V2.736l-2.195.588zm-.16 2.112V3.264a.08.08 0 0 1 .06-.078l2.35-.63a.08.08 0 0 1 .105.076v2.171a.08.08 0 0 1-.06.08l-2.35.629a.08.08 0 0 1-.105-.076z"></path>
  <path fill-rule="nonzero" d="m5.294 3.24-.465.124V4.41l.465-.124V3.24zm-.566-.014.621-.167a.08.08 0 0 1 .105.077v1.21a.08.08 0 0 1-.06.078l-.62.167a.08.08 0 0 1-.105-.076v-1.21a.08.08 0 0 1 .059-.08v.001z"></path>
  <path fill-rule="nonzero" d="M5.788 3.33a.08.08 0 0 0-.041-.154l-.394.106a.08.08 0 0 0 .042.154l.393-.105zm-1.019.274a.08.08 0 0 0-.041-.155l-1.335.358a.08.08 0 0 0 .041.155l1.335-.358zM.973 5.184a.08.08 0 0 0-.04.154l2.46.631a.08.08 0 0 0 .047-.002l2.453-.629a.08.08 0 0 0-.039-.154l-2.44.625-2.441-.625z"></path>
  <path fill="#b0bec5" d="m1.369 1.558 2.044.548 2.044-.548-2.044-.54z"></path>
  <path fill="#4d4d4d" d="m3.333 2.25-2.194-.588v.437l2.194.588zM3.493 2.25v.437l2.195-.588v-.437z"></path>
  <path fill="#fff59d" d="m5.688 2.264-2.25.603a.08.08 0 0 1-.05 0L1.14 2.264v.307l2.274.61 2.275-.61v-.307z"></path>
  <path fill="#4d4d4d" d="M3.333 3.324 1.14 2.736v.456l.334.09a.08.08 0 0 1-.041.154l-.293-.078v1.386l2.194.588V3.946l-1.276-.342a.08.08 0 0 1 .042-.155l1.234.331v-.456zm.16 0v.456l1.176-.315v-.16a.08.08 0 0 1 .059-.08l.621-.165a.08.08 0 0 1 .105.076v.119l.234-.063v-.456l-2.195.588z"></path>
  <path fill="#fff59d" d="M4.829 3.364V4.41l.465-.124V3.24z"></path>
  <path fill="#4d4d4d" d="M4.669 4.515V3.63l-1.176.315v1.386l2.195-.588V3.358l-.234.062v.926a.08.08 0 0 1-.06.078l-.62.167a.08.08 0 0 1-.105-.076z"></path>
  <path fill="none" d="M0 0h6.827v6.827H0z"></path>
</svg>
